<svg width="1507" height="485" viewBox="0 0 1507 485" fill="none" xmlns="http://www.w3.org/2000/svg">
<path d="M12.1806 314.823C4.06022 304.829 0 295.927 0 288.119C0 279.999 6.71497 269.38 20.1449 256.262C27.953 248.766 36.2296 245.018 44.9747 245.018C53.7198 245.018 65.9004 252.827 81.5167 268.443C85.8892 273.752 92.1357 278.906 100.256 283.903C108.377 288.588 115.872 290.93 122.743 290.93C151.79 290.93 166.313 279.062 166.313 255.325C166.313 248.142 162.252 242.208 154.132 237.523C146.324 232.525 136.486 228.934 124.617 226.747C112.749 224.561 99.9438 221.126 86.2015 216.441C72.4592 211.444 59.6539 205.666 47.7856 199.107C35.9173 192.548 25.9229 182.241 17.8025 168.187C9.99438 153.82 6.09033 136.642 6.09033 116.653C6.09033 89.1686 16.2409 65.2758 36.542 44.9747C57.1554 24.3613 85.1084 14.0546 120.401 14.0546C139.14 14.0546 156.162 16.5532 171.466 21.5504C187.082 26.2352 197.857 31.0763 203.792 36.0735L215.504 44.9747C225.186 54.0321 230.027 61.6841 230.027 67.9305C230.027 74.177 226.279 82.7659 218.783 93.6973C208.164 109.314 197.233 117.122 185.989 117.122C179.43 117.122 171.31 113.998 161.628 107.752C160.691 107.127 158.817 105.566 156.006 103.067C153.507 100.568 151.165 98.5383 148.979 96.9767C142.42 92.9165 133.987 90.8864 123.68 90.8864C113.686 90.8864 105.253 93.385 98.3822 98.3822C91.8234 103.067 88.544 109.782 88.544 118.527C88.544 126.96 92.448 133.831 100.256 139.14C108.377 144.45 118.371 148.042 130.239 149.916C142.108 151.79 155.069 154.757 169.124 158.817C183.178 162.565 196.14 167.25 208.008 172.872C219.876 178.493 229.715 188.332 237.523 202.386C245.643 216.128 249.703 233.15 249.703 253.451C249.703 273.752 245.643 291.711 237.523 307.327C229.402 322.631 218.783 334.499 205.666 342.932C180.367 359.485 153.351 367.762 124.617 367.762C109.938 367.762 96.0397 366.044 82.9221 362.609C69.8045 358.861 59.1855 354.332 51.065 349.022C34.5118 339.028 22.9558 329.346 16.397 319.976L12.1806 314.823Z" fill="white"/>
<path d="M280.159 430.071V156.474C280.159 149.291 280.315 143.982 280.627 140.546C281.252 137.11 282.657 133.206 284.843 128.834C289.216 120.401 299.679 116.185 316.232 116.185C332.785 116.185 343.873 118.371 349.495 122.743C355.429 126.804 358.864 132.894 359.801 141.014C371.67 124.774 390.253 116.653 415.551 116.653C441.162 116.653 465.367 128.678 488.167 152.727C510.966 176.776 522.366 204.729 522.366 236.586C522.366 268.443 510.966 296.396 488.167 320.445C465.679 344.494 441.63 356.518 416.02 356.518C390.409 356.518 371.826 349.335 360.27 334.968V429.602C360.27 436.786 359.957 442.095 359.333 445.531C359.02 448.966 357.615 452.87 355.116 457.243C352.93 461.928 349.026 465.207 343.404 467.081C337.782 468.955 330.13 469.892 320.448 469.892C310.766 469.892 302.958 468.955 297.024 467.081C291.402 465.207 287.342 462.084 284.843 457.711C282.657 453.339 281.252 449.435 280.627 445.999C280.315 442.564 280.159 437.254 280.159 430.071ZM372.919 209.413C365.735 217.846 362.144 227.06 362.144 237.054C362.144 247.049 365.735 256.262 372.919 264.695C380.415 272.815 389.784 276.876 401.028 276.876C412.584 276.876 422.266 272.815 430.074 264.695C438.195 256.574 442.255 247.361 442.255 237.054C442.255 226.747 438.507 217.534 431.011 209.413C423.515 200.981 413.677 196.764 401.497 196.764C389.628 196.764 380.102 200.981 372.919 209.413Z" fill="white"/>
<path d="M713.055 142.42C714.929 124.93 727.266 116.185 750.065 116.185C762.246 116.185 771.303 117.122 777.237 118.996C783.172 120.87 787.232 124.149 789.418 128.834C791.917 133.519 793.322 137.735 793.634 141.483C794.259 144.918 794.571 150.228 794.571 157.411V321.382C794.571 328.565 794.259 334.031 793.634 337.779C793.322 341.214 792.073 345.275 789.887 349.959C785.514 358.08 774.739 362.14 757.561 362.14C740.695 362.14 729.296 360.11 723.361 356.05C717.74 351.677 714.46 345.431 713.523 337.31C701.967 353.863 682.603 362.14 655.431 362.14C628.571 362.14 603.585 349.803 580.473 325.13C557.361 300.456 545.805 271.878 545.805 239.397C545.805 206.603 557.361 178.025 580.473 153.664C603.897 128.99 629.508 116.653 657.305 116.653C667.924 116.653 677.606 118.527 686.351 122.275C695.096 126.023 701.186 129.615 704.622 133.05C708.058 136.173 710.868 139.297 713.055 142.42ZM627.79 239.865C627.79 250.172 631.85 259.542 639.971 267.974C648.091 276.095 657.929 280.155 669.485 280.155C681.041 280.155 690.567 275.939 698.063 267.506C705.871 259.073 709.775 249.859 709.775 239.865C709.775 229.558 706.027 220.032 698.532 211.287C691.348 202.542 681.51 198.17 669.017 198.17C656.836 198.17 646.842 202.542 639.034 211.287C631.538 220.032 627.79 229.558 627.79 239.865Z" fill="white"/>
<path d="M831.911 41.2268C831.911 34.0434 832.067 28.7338 832.38 25.2983C833.004 21.5504 834.41 17.334 836.596 12.6491C840.969 4.21638 853.149 0 873.138 0C892.19 0 904.058 4.21638 908.743 12.6491C911.242 17.334 912.647 21.5504 912.959 25.2983C913.584 29.0462 913.896 34.5118 913.896 41.6953V258.605C913.896 269.848 914.833 277.032 916.707 280.155C918.581 282.966 922.641 284.371 928.888 284.371C935.447 284.371 939.819 284.684 942.006 285.308C944.192 285.621 946.847 286.87 949.97 289.056C956.216 293.116 959.34 304.204 959.34 322.319C959.34 341.995 956.216 354.02 949.97 358.392C941.849 364.014 922.485 364.951 891.878 361.203C867.829 358.08 852.212 350.116 845.029 337.31C836.284 322.006 831.911 297.645 831.911 264.226V41.2268Z" fill="white"/>
<path d="M1121.97 117.122C1153.21 117.122 1179.13 128.99 1199.74 152.727C1220.67 176.463 1231.13 205.509 1231.13 239.865V322.319C1231.13 329.502 1230.82 334.968 1230.19 338.716C1229.88 342.151 1228.48 346.212 1225.98 350.896C1221.92 359.017 1209.89 363.077 1189.9 363.077C1170.85 363.077 1158.98 359.017 1154.3 350.896C1151.8 346.212 1150.24 341.995 1149.61 338.247C1149.3 334.499 1149.15 328.878 1149.15 321.382V239.397C1149.15 226.591 1145.55 216.597 1138.37 209.413C1131.19 202.23 1121.97 198.638 1110.73 198.638C1099.8 198.638 1090.12 202.074 1081.68 208.945C1073.25 215.504 1068.41 223 1067.16 231.432V322.319C1067.16 329.502 1066.85 334.968 1066.22 338.716C1065.91 342.151 1064.51 346.212 1062.01 350.896C1057.95 359.017 1045.92 363.077 1025.93 363.077C1006.26 363.077 994.233 358.861 989.861 350.428C987.674 345.743 986.269 341.683 985.644 338.247C985.332 334.812 985.176 329.346 985.176 321.85V41.6953C985.176 34.5118 985.332 29.2023 985.644 25.7668C986.269 22.0189 987.674 17.9586 989.861 13.5861C994.233 5.15334 1006.41 0.936961 1026.4 0.936961C1046.08 0.936961 1057.95 5.15334 1062.01 13.5861C1064.51 18.271 1065.91 22.4874 1066.22 26.2352C1066.85 29.6708 1067.16 34.9803 1067.16 42.1638V145.699C1082.78 126.648 1101.05 117.122 1121.97 117.122Z" fill="white"/>
<path d="M1506.82 210.35C1506.82 229.402 1501.98 243.613 1492.3 252.983C1482.93 262.04 1472.47 266.569 1460.91 266.569H1349.88C1349.88 275.314 1355.03 282.654 1365.34 288.588C1375.64 294.522 1385.95 297.489 1396.26 297.489C1414.37 297.489 1428.58 295.615 1438.89 291.867L1444.04 289.993C1451.54 286.558 1457.79 284.84 1462.78 284.84C1472.78 284.84 1481.37 291.867 1488.55 305.922C1492.61 314.354 1494.64 321.538 1494.64 327.472C1494.64 355.269 1461.38 369.167 1394.85 369.167C1371.74 369.167 1351.13 365.263 1333.01 357.455C1315.21 349.335 1301.31 338.716 1291.32 325.598C1271.64 300.3 1261.8 272.034 1261.8 240.802C1261.8 201.449 1274.45 170.061 1299.75 146.636C1325.36 122.9 1357.22 111.031 1395.32 111.031C1438.73 111.031 1470.59 126.335 1490.89 156.943C1501.51 173.184 1506.82 190.986 1506.82 210.35ZM1407.97 223.937C1419.84 223.937 1425.77 218.939 1425.77 208.945C1425.77 201.762 1422.96 195.984 1417.34 191.611C1412.03 187.238 1404.22 185.052 1393.92 185.052C1383.92 185.052 1373.93 189.269 1363.93 197.701C1353.94 205.822 1348.94 214.567 1348.94 223.937H1407.97Z" fill="white"/>
<rect x="426" y="404" width="342" height="81" rx="7.2973" fill="#FFC107"/>
<rect x="795" y="404" width="343" height="81" rx="7.2973" fill="#FFDD75"/>
<rect x="1166" y="404" width="341" height="81" rx="7.2973" fill="#FBEDC5"/>
</svg>
