<svg width="1496" height="358" viewBox="0 0 1496 358" fill="none" xmlns="http://www.w3.org/2000/svg">
<path d="M244.944 80.4995C233.418 52.5952 212.928 29.6626 186.938 15.5785C160.948 1.49439 131.053 -2.87703 102.306 3.20322C73.5585 9.28348 47.7234 25.4424 29.1682 48.9481C10.613 72.4539 0.476007 101.864 0.470947 132.207V237.566C0.470947 244.552 3.15448 251.251 7.9312 256.191C12.7079 261.13 19.1865 263.905 25.9418 263.905H112.973C122.911 287.375 139.242 307.345 159.971 321.377C180.701 335.409 204.933 342.896 229.709 342.924H331.593C338.348 342.924 344.826 340.149 349.603 335.21C354.38 330.27 357.063 323.57 357.063 316.585V211.226C357.057 179.03 345.647 147.952 324.988 123.865C304.33 99.778 275.854 84.3509 244.944 80.4995ZM25.9418 132.207C25.9418 111.369 31.9172 90.9995 43.1123 73.6734C54.3074 56.3473 70.2195 42.8432 88.8363 34.8689C107.453 26.8946 127.938 24.8081 147.702 28.8734C167.465 32.9387 185.619 42.9731 199.868 57.7077C214.117 72.4424 223.82 91.2155 227.751 111.653C231.683 132.091 229.665 153.275 221.954 172.526C214.242 191.778 201.184 208.233 184.429 219.81C167.674 231.387 147.976 237.566 127.825 237.566H25.9418V132.207ZM331.593 316.585H229.709C211.693 316.563 194.004 311.613 178.436 302.237C162.868 292.861 149.977 279.392 141.07 263.198C158.513 261.326 175.394 255.746 190.653 246.807C205.911 237.869 219.218 225.765 229.739 211.257C240.26 196.748 247.766 180.146 251.788 162.495C255.81 144.843 256.26 126.523 253.11 108.683C275.449 114.135 295.354 127.227 309.598 145.839C323.843 164.45 331.593 187.491 331.593 211.226V316.585Z" fill="black"/>
<path d="M554.458 59.2335C566.951 59.2335 578.737 61.3518 589.818 65.5885C601.007 69.8252 610.784 75.6914 619.149 83.1871C627.514 90.6828 633.869 99.3735 638.214 109.259C639.192 111.432 639.681 113.659 639.681 115.94C639.681 120.394 638.051 124.251 634.792 127.51C631.642 130.66 627.84 132.235 623.386 132.235C620.453 132.235 617.52 131.312 614.586 129.465C611.653 127.51 609.589 125.174 608.394 122.458C604.266 113.116 597.368 105.674 587.7 100.134C578.14 94.5936 567.059 91.8235 554.458 91.8235C548.266 91.8235 541.693 92.5839 534.741 94.1048C527.897 95.6257 521.433 97.9613 515.35 101.112C509.266 104.153 504.324 108.01 500.521 112.681C496.719 117.352 494.818 122.784 494.818 128.976C494.818 133.973 496.448 138.319 499.707 142.012C502.966 145.597 506.605 148.422 510.624 150.486C520.075 155.157 530.504 158.416 541.911 160.263C553.426 162.109 565.05 163.902 576.782 165.64C588.514 167.378 599.432 170.42 609.535 174.765C615.944 177.481 622.082 181.229 627.948 186.009C633.815 190.789 638.594 196.6 642.288 203.444C645.982 210.288 647.828 218.327 647.828 227.561C647.828 239.511 644.95 249.994 639.192 259.01C633.434 268.027 625.884 275.523 616.542 281.497C607.199 287.472 597.042 291.981 586.07 295.022C575.207 297.955 564.561 299.422 554.132 299.422C540.01 299.422 526.756 297.195 514.372 292.741C501.988 288.178 491.179 281.769 481.945 273.513C472.711 265.148 465.65 255.371 460.762 244.182C459.784 242.009 459.295 239.837 459.295 237.664C459.295 233.21 460.87 229.408 464.021 226.257C467.28 222.998 471.136 221.369 475.59 221.369C478.632 221.369 481.619 222.347 484.552 224.302C487.485 226.149 489.495 228.484 490.581 231.309C495.361 242.281 503.454 250.971 514.861 257.381C526.268 263.682 539.358 266.832 554.132 266.832C563.366 266.832 572.654 265.474 581.996 262.758C591.339 259.934 599.161 255.643 605.461 249.885C611.871 244.019 615.075 236.578 615.075 227.561C615.075 221.803 613.12 217.078 609.209 213.384C605.407 209.582 601.225 206.703 596.662 204.748C586.342 200.294 575.316 197.252 563.583 195.623C551.851 193.885 540.173 192.092 528.549 190.245C516.925 188.29 506.062 184.759 495.959 179.654C487.377 175.308 479.555 169.008 472.494 160.751C465.541 152.387 462.065 141.795 462.065 128.976C462.065 117.678 464.781 107.738 470.213 99.1562C475.753 90.4656 483.031 83.1871 492.048 77.3209C501.173 71.3461 511.167 66.8378 522.031 63.7961C532.894 60.7543 543.703 59.2335 554.458 59.2335ZM853.471 208.659C853.471 220.934 851.19 232.884 846.627 244.508C842.173 256.132 835.438 266.397 826.422 275.305C818.491 283.018 809.366 288.993 799.046 293.23C788.726 297.467 778.025 299.585 766.945 299.585C755.647 299.585 745.598 297.195 736.799 292.415C728.108 287.635 720.232 281.172 713.171 273.024V341.626C713.171 346.08 711.542 349.882 708.283 353.033C705.132 356.292 701.33 357.921 696.876 357.921C692.422 357.921 688.566 356.292 685.307 353.033C682.156 349.882 680.581 346.08 680.581 341.626V133.539C680.581 129.085 682.156 125.283 685.307 122.132C688.566 118.873 692.422 117.244 696.876 117.244C701.33 117.244 704.644 118.873 706.816 122.132C709.098 125.283 710.564 129.085 711.216 133.539L713.171 146.738C719.363 137.83 727.511 130.823 737.614 125.717C747.825 120.611 757.983 118.058 768.086 118.058C780.361 118.058 791.659 120.503 801.979 125.391C812.408 130.28 821.479 136.961 829.192 145.434C836.905 153.799 842.88 163.413 847.116 174.276C851.353 185.14 853.471 196.6 853.471 208.659ZM768.411 150.648C761.35 150.648 754.343 152.224 747.391 155.374C740.438 158.416 734.518 162.652 729.629 168.084C724.741 173.407 720.939 179.762 718.223 187.149C715.616 194.428 714.312 201.869 714.312 209.473C714.312 219.902 716.593 229.516 721.156 238.316C725.718 247.115 732.019 254.176 740.058 259.499C748.097 264.822 757.276 267.484 767.597 267.484C777.917 267.484 787.096 264.714 795.135 259.173C803.174 253.524 809.475 246.246 814.037 237.338C818.709 228.321 821.044 218.762 821.044 208.659C821.044 198.447 818.763 188.942 814.2 180.142C809.638 171.343 803.391 164.228 795.461 158.796C787.531 153.364 778.514 150.648 768.411 150.648ZM963.3 116.755C971.339 116.755 979.16 118.384 986.765 121.643C994.478 124.794 1001.32 128.813 1007.3 133.702C1013.38 138.482 1017.89 143.424 1020.82 148.53L1022.61 132.887C1022.61 128.433 1023.92 124.631 1026.52 121.48C1029.13 118.221 1032.66 116.592 1037.12 116.592C1041.57 116.592 1045.37 118.221 1048.52 121.48C1051.78 124.631 1053.41 128.433 1053.41 132.887V133.213L1053.09 284.105C1053.09 288.559 1051.46 292.415 1048.2 295.674C1045.05 298.824 1041.24 300.4 1036.79 300.4C1032.34 300.4 1028.81 298.824 1026.2 295.674C1023.59 292.415 1022.29 288.559 1022.29 284.105L1020.5 271.069C1014.85 280.737 1006.59 287.961 995.727 292.741C984.863 297.412 973.946 299.748 962.974 299.748C950.698 299.748 939.183 297.358 928.428 292.578C917.674 287.69 908.223 281.009 900.075 272.535C891.928 264.062 885.518 254.339 880.847 243.367C876.284 232.395 874.003 220.826 874.003 208.659C874.003 196.6 876.23 185.085 880.684 174.113C885.247 163.033 891.547 153.201 899.586 144.619C907.734 135.929 917.185 129.139 927.94 124.251C938.803 119.253 950.59 116.755 963.3 116.755ZM1019.52 208.333C1019.52 197.687 1017.02 187.91 1012.02 179.002C1007.13 170.094 1000.45 162.924 991.979 157.492C983.506 152.061 973.837 149.345 962.974 149.345C952.328 149.345 942.714 152.061 934.132 157.492C925.55 162.924 918.76 170.148 913.763 179.165C908.766 188.073 906.267 197.741 906.267 208.17C906.267 218.707 908.82 228.484 913.926 237.501C919.032 246.409 925.876 253.579 934.458 259.01C943.148 264.442 952.708 267.158 963.137 267.158C973.566 267.158 983.017 264.442 991.49 259.01C1000.07 253.579 1006.86 246.409 1011.86 237.501C1016.96 228.484 1019.52 218.762 1019.52 208.333ZM1100.67 58.2558C1105.88 58.2558 1110.06 59.9939 1113.21 63.4702C1116.36 66.8378 1117.89 70.5313 1117.78 74.5508V284.431C1117.78 288.776 1116.04 292.306 1112.56 295.022C1109.19 297.63 1105.83 298.933 1102.46 298.933C1097.79 298.933 1093.71 297.412 1090.24 294.37C1086.87 291.329 1085.19 287.418 1085.19 282.638V74.5508C1085.19 70.4227 1086.65 66.6749 1089.59 63.3072C1092.63 59.9396 1096.32 58.2558 1100.67 58.2558ZM1148.74 74.0619C1148.74 69.7166 1150.31 66.0231 1153.46 62.9813C1156.61 59.8309 1160.47 58.2558 1165.03 58.2558C1169.49 58.2558 1173.29 59.8309 1176.44 62.9813C1179.7 66.0231 1181.33 69.7166 1181.33 74.0619V145.108C1185.46 136.309 1191.48 129.574 1199.41 124.902C1207.34 120.122 1215 117.733 1222.39 117.733C1239.45 117.733 1253.35 121.209 1264.11 128.161C1274.97 135.114 1282.95 144.782 1288.06 157.166C1293.17 169.551 1295.72 183.836 1295.72 200.022V201.489L1295.56 283.779V283.942C1295.56 288.287 1293.93 292.035 1290.67 295.185C1287.52 298.227 1283.71 299.748 1279.26 299.748C1274.81 299.748 1270.95 298.227 1267.69 295.185C1264.54 292.035 1262.97 288.287 1262.97 283.942V283.779L1263.13 202.304V201.978C1263.13 185.248 1260.36 172.484 1254.82 163.684C1249.28 154.885 1238.47 150.486 1222.39 150.486C1208.81 150.486 1198.6 155.211 1191.76 164.662C1185.02 174.113 1181.65 186.28 1181.65 201.163V284.105C1181.65 288.45 1180.02 292.198 1176.76 295.348C1173.61 298.39 1169.81 299.911 1165.36 299.911C1160.69 299.911 1156.72 298.336 1153.46 295.185C1150.31 291.926 1148.74 288.233 1148.74 284.105V74.0619ZM1406.04 118.058C1420.48 118.058 1433.74 121.643 1445.8 128.813C1457.85 135.983 1467.52 145.651 1474.8 157.818C1482.19 169.877 1485.88 183.293 1485.88 198.067C1485.88 201.109 1485.72 204.205 1485.39 207.355C1484.96 211.375 1483.11 214.797 1479.85 217.621C1476.7 220.337 1473.12 221.695 1469.1 221.695L1355.19 221.858C1357.04 229.679 1360.52 237.012 1365.62 243.856C1370.73 250.7 1376.92 256.24 1384.2 260.477C1391.59 264.714 1399.63 266.832 1408.32 266.832C1417.66 266.832 1426.02 264.551 1433.41 259.988C1440.8 255.425 1446.56 250.157 1450.68 244.182C1451.99 242.118 1453.94 240.38 1456.55 238.967C1459.27 237.555 1461.82 236.849 1464.21 236.849C1468.66 236.849 1472.46 238.479 1475.61 241.738C1478.87 244.997 1480.5 248.853 1480.5 253.307C1480.5 256.783 1479.53 259.879 1477.57 262.595C1470.84 272.481 1461.55 281.063 1449.71 288.341C1437.97 295.511 1424.34 299.096 1408.81 299.096C1396.31 299.096 1384.69 296.652 1373.93 291.763C1363.29 286.875 1354 280.194 1346.07 271.72C1338.14 263.247 1331.95 253.524 1327.49 242.552C1323.15 231.472 1320.98 219.794 1320.98 207.518C1320.98 195.677 1323.15 184.433 1327.49 173.787C1331.84 163.033 1337.87 153.473 1345.58 145.108C1353.4 136.743 1362.47 130.171 1372.79 125.391C1383.11 120.503 1394.19 118.058 1406.04 118.058ZM1452.31 189.105C1450.25 178.459 1444.93 169.388 1436.34 161.892C1427.76 154.396 1417.66 150.648 1406.04 150.648C1394.19 150.648 1383.71 154.505 1374.59 162.218C1365.57 169.931 1359.49 178.947 1356.34 189.268L1452.31 189.105Z" fill="black"/>
</svg>
