<svg width="369" height="146" viewBox="0 0 369 146" fill="none" xmlns="http://www.w3.org/2000/svg">
<path d="M32.6496 119.289C29.0353 119.289 25.7422 118.847 22.7704 117.964C19.8789 117.08 17.3087 115.956 15.0598 114.59C12.8912 113.225 11.0438 111.819 9.51779 110.374C7.99173 108.928 6.86726 107.603 6.14439 106.398C5.10025 104.952 4.41754 103.667 4.09626 102.543C3.77499 101.418 3.85531 100.334 4.33722 99.2897C4.89945 98.1652 5.90344 97.0006 7.34918 95.7958C8.79492 94.5107 10.1202 93.8682 11.325 93.8682C12.6101 93.7878 13.8148 94.1493 14.9393 94.9525C16.1441 95.7557 17.3087 96.8801 18.4332 98.3259C20.3608 100.896 22.5294 102.743 24.939 103.868C27.3486 104.912 29.7581 105.434 32.1677 105.434C35.3002 105.434 38.031 105.032 40.3602 104.229C42.6895 103.346 44.4967 102.061 45.7818 100.374C47.1472 98.6873 47.8299 96.5187 47.8299 93.8682C47.8299 91.6996 47.1472 89.9325 45.7818 88.5671C44.4967 87.1214 42.7698 85.9166 40.6012 84.9528C38.4326 83.9086 35.9829 82.985 33.252 82.1818C30.6015 81.2983 27.9108 80.3344 25.18 79.2903C23.2523 78.6477 21.3247 77.8847 19.397 77.0012C17.4694 76.0374 15.6622 74.9531 13.9755 73.7483C12.3691 72.5435 10.9234 71.1379 9.63827 69.5315C8.43348 67.8448 7.46966 65.9172 6.74679 63.7486C6.02392 61.58 5.66248 59.0499 5.66248 56.1584C5.66248 51.5803 6.78695 47.5643 9.03587 44.1106C11.2848 40.5766 14.4172 37.8056 18.4332 35.7976C22.4491 33.7093 27.0273 32.6652 32.1677 32.6652C35.4608 32.6652 38.3924 32.9864 40.9626 33.629C43.6132 34.1912 45.8621 34.9543 47.7094 35.9181C49.6371 36.8016 51.2033 37.7253 52.4081 38.6891C53.6932 39.5726 54.6168 40.3356 55.1791 40.9782C57.0264 42.8255 58.0304 44.3917 58.191 45.6768C58.432 46.8816 57.7091 48.5282 56.0224 50.6164C54.3357 52.785 52.6892 53.9898 51.0828 54.2308C49.5568 54.3914 47.8299 53.7489 45.9022 52.3031C44.6171 50.9377 43.332 49.8534 42.0469 49.0502C40.7618 48.1667 39.3161 47.5242 37.7097 47.1226C36.1837 46.721 34.2962 46.5202 32.0472 46.5202C30.4409 46.5202 28.8746 46.7611 27.3486 47.243C25.9028 47.6446 24.6579 48.2872 23.6138 49.1707C22.5696 49.9739 21.7263 50.9779 21.0837 52.1827C20.5215 53.3874 20.2404 54.7529 20.2404 56.2789C20.2404 58.3672 20.8026 60.0941 21.9271 61.4595C23.1318 62.7446 24.7382 63.8289 26.7462 64.7124C28.7542 65.5156 31.0031 66.2786 33.493 67.0015C35.9829 67.7244 38.5129 68.4874 41.0831 69.2906C43.7336 70.1741 46.344 71.2182 48.9142 72.423C51.4844 73.6278 53.7735 75.1539 55.7815 77.0012C57.7894 78.7682 59.3958 81.0171 60.6006 83.748C61.8054 86.3985 62.4078 89.6514 62.4078 93.5067C62.4078 97.9243 61.5644 101.78 59.8777 105.073C58.191 108.366 55.9019 111.056 53.0105 113.145C50.119 115.233 46.9062 116.759 43.3722 117.723C39.8382 118.767 36.264 119.289 32.6496 119.289ZM102.985 117.361C99.0498 117.361 95.5158 116.639 92.3833 115.193C89.3312 113.667 86.7209 111.578 84.5523 108.928C82.464 106.197 80.8576 103.065 79.7331 99.5306C78.689 95.9966 78.1669 92.1815 78.1669 88.0852C78.2472 83.9889 78.8496 80.1738 79.9741 76.6398C81.0985 73.0254 82.7049 69.893 84.7932 67.2424C86.9618 64.5919 89.5722 62.5036 92.6243 60.9776C95.6764 59.4515 99.1301 58.6885 102.985 58.6885C106.68 58.6885 110.134 59.4515 113.347 60.9776C116.64 62.5036 119.531 64.6321 122.021 67.3629C124.591 70.0938 126.599 73.2664 128.045 76.8807C129.491 80.4147 130.214 84.2299 130.214 88.3262C130.214 92.5027 129.491 96.358 128.045 99.8921C126.599 103.426 124.631 106.518 122.141 109.169C119.652 111.739 116.76 113.747 113.467 115.193C110.174 116.639 106.68 117.361 102.985 117.361ZM78.8898 142.421C76.7212 142.421 75.1148 142.1 74.0706 141.457C73.0265 140.815 72.3839 139.971 72.143 138.927C71.902 137.883 71.7816 136.678 71.7816 135.313V66.0377C71.7816 64.6722 71.902 63.4675 72.143 62.4233C72.3839 61.3792 72.9863 60.5358 73.9502 59.8933C74.9943 59.1704 76.6007 58.809 78.7693 58.809C80.8576 58.809 82.5041 59.1302 83.7089 59.7728C84.9137 60.4153 85.7169 61.4997 86.1185 63.0257V135.192C86.1988 136.558 86.0783 137.762 85.757 138.807C85.5161 139.931 84.8735 140.815 83.8294 141.457C82.7852 142.1 81.1387 142.421 78.8898 142.421ZM101.058 103.868C103.869 103.868 106.399 103.225 108.648 101.94C110.897 100.575 112.664 98.7275 113.949 96.3982C115.314 93.9886 115.997 91.298 115.997 88.3262C115.997 85.274 115.314 82.5834 113.949 80.2541C112.664 77.9249 110.897 76.1177 108.648 74.8326C106.399 73.4672 103.869 72.7845 101.058 72.7845C98.3269 72.7845 95.8371 73.4672 93.5881 74.8326C91.3392 76.198 89.532 78.0453 88.1666 80.3746C86.8815 82.6235 86.239 85.274 86.239 88.3262C86.239 91.298 86.8815 93.9886 88.1666 96.3982C89.532 98.7275 91.3392 100.575 93.5881 101.94C95.8371 103.225 98.3269 103.868 101.058 103.868ZM189.787 117.964C187.458 117.964 185.731 117.522 184.607 116.639C183.482 115.755 182.92 114.55 182.92 113.024L183.763 109.048C183.121 110.093 182.036 111.338 180.51 112.783C178.984 114.149 176.976 115.394 174.486 116.518C171.997 117.562 168.985 118.084 165.451 118.084C161.676 118.084 158.101 117.321 154.728 115.795C151.435 114.189 148.503 112.02 145.933 109.289C143.443 106.478 141.435 103.306 139.909 99.7716C138.463 96.1572 137.741 92.3019 137.741 88.2057C137.741 84.2701 138.463 80.5754 139.909 77.1217C141.435 73.5876 143.483 70.4552 146.054 67.7244C148.624 64.9935 151.555 62.8651 154.849 61.339C158.222 59.7326 161.756 58.9294 165.451 58.9294C168.744 58.9294 171.515 59.3712 173.764 60.2547C176.093 61.1382 178.061 62.2627 179.667 63.6281C181.273 64.9132 182.599 66.2786 183.643 67.7244L182.92 64.2305C182.92 62.4635 183.482 61.1382 184.607 60.2547C185.731 59.2909 187.498 58.809 189.908 58.809C192.157 58.809 193.763 59.1704 194.727 59.8933C195.691 60.5358 196.293 61.4595 196.534 62.6643C196.775 63.7887 196.895 65.0738 196.895 66.5196V110.615C196.895 111.98 196.775 113.225 196.534 114.349C196.293 115.474 195.651 116.357 194.606 117C193.643 117.643 192.036 117.964 189.787 117.964ZM167.619 103.988C170.35 103.988 172.8 103.306 174.968 101.94C177.137 100.575 178.864 98.7275 180.149 96.3982C181.514 93.9886 182.197 91.3381 182.197 88.4466C182.197 85.3142 181.514 82.5834 180.149 80.2541C178.784 77.9249 176.976 76.1177 174.727 74.8326C172.559 73.4672 170.109 72.7845 167.378 72.7845C164.406 72.7845 161.756 73.5073 159.427 74.9531C157.097 76.3185 155.25 78.206 153.885 80.6155C152.6 82.9448 151.957 85.5953 151.957 88.5671C151.957 91.4586 152.64 94.069 154.005 96.3982C155.371 98.7275 157.218 100.575 159.547 101.94C161.957 103.306 164.647 103.988 167.619 103.988ZM229.706 118.205C226.734 118.205 224.084 118.004 221.754 117.602C219.506 117.201 217.538 116.518 215.851 115.554C214.245 114.59 212.919 113.305 211.875 111.699C210.831 110.012 210.028 107.964 209.466 105.555C208.984 103.145 208.743 100.254 208.743 96.8801V38.8096C208.743 37.4441 208.863 36.2394 209.104 35.1952C209.426 34.0708 210.068 33.1872 211.032 32.5447C212.076 31.8218 213.723 31.4604 215.972 31.4604C218.22 31.4604 219.827 31.7817 220.791 32.4242C221.835 33.0668 222.477 33.9503 222.718 35.0747C223.04 36.1189 223.2 37.3237 223.2 38.6891V96.2777C223.2 97.8038 223.281 99.0889 223.441 100.133C223.682 101.097 224.044 101.9 224.525 102.543C225.088 103.105 225.77 103.506 226.574 103.747C227.457 103.988 228.501 104.109 229.706 104.109C230.75 104.109 231.674 104.229 232.477 104.47C233.361 104.711 234.043 105.314 234.525 106.277C235.087 107.241 235.369 108.807 235.369 110.976C235.369 113.225 235.087 114.872 234.525 115.916C234.043 116.96 233.361 117.602 232.477 117.843C231.594 118.084 230.67 118.205 229.706 118.205ZM250.551 118.205C248.302 118.205 246.655 117.843 245.611 117.12C244.647 116.478 244.045 115.594 243.804 114.47C243.563 113.345 243.442 112.141 243.442 110.856V38.93C243.442 37.5646 243.563 36.3598 243.804 35.3157C244.125 34.1912 244.768 33.3077 245.732 32.6652C246.776 32.0226 248.422 31.7013 250.671 31.7013C252.92 31.7013 254.526 32.0628 255.49 32.7856C256.534 33.4282 257.177 34.3117 257.418 35.4362C257.739 36.4803 257.9 37.6851 257.9 39.0505V66.2786C259.506 64.4313 261.554 62.7446 264.044 61.2185C266.614 59.6122 269.707 58.809 273.321 58.809C278.221 58.809 282.598 60.0138 286.453 62.4233C290.309 64.7526 293.361 68.0055 295.61 72.1821C297.858 76.3586 298.983 81.2581 298.983 86.8804V110.976C298.983 112.261 298.862 113.466 298.622 114.59C298.381 115.635 297.738 116.478 296.694 117.12C295.73 117.763 294.124 118.084 291.875 118.084C289.626 118.084 287.979 117.763 286.935 117.12C285.891 116.478 285.248 115.635 285.007 114.59C284.767 113.466 284.646 112.181 284.646 110.735V86.7599C284.646 83.9488 284.164 81.4991 283.2 79.4108C282.236 77.3225 280.791 75.7161 278.863 74.5916C277.016 73.3868 274.686 72.7845 271.875 72.7845C268.1 72.7845 264.928 73.9089 262.358 76.1578C259.787 78.3265 258.301 81.1376 257.9 84.5913V110.976C257.9 112.261 257.739 113.466 257.418 114.59C257.177 115.715 256.534 116.598 255.49 117.241C254.526 117.884 252.88 118.205 250.551 118.205ZM338.37 118.928C333.149 118.928 328.571 118.084 324.635 116.398C320.78 114.711 317.527 112.422 314.877 109.53C312.306 106.559 310.339 103.265 308.973 99.6511C307.688 95.9565 307.046 92.1413 307.046 88.2057C307.046 82.4227 308.371 77.2823 311.021 72.7845C313.672 68.2866 317.326 64.7526 321.985 62.1824C326.724 59.6122 332.145 58.3271 338.249 58.3271C342.587 58.3271 346.402 59.0098 349.695 60.3752C352.988 61.7406 355.719 63.5478 357.887 65.7967C360.136 67.9653 361.823 70.3749 362.948 73.0254C364.152 75.6759 364.755 78.2461 364.755 80.736C364.755 84.9929 363.711 88.0852 361.622 90.0129C359.614 91.9405 357.084 92.9043 354.032 92.9043H322.226C322.306 95.6352 323.15 98.0046 324.756 100.013C326.443 102.021 328.531 103.587 331.021 104.711C333.591 105.755 336.201 106.277 338.852 106.277C340.86 106.277 342.627 106.157 344.153 105.916C345.759 105.675 347.125 105.394 348.249 105.073C349.374 104.671 350.337 104.269 351.141 103.868C352.024 103.466 352.827 103.105 353.55 102.784C354.273 102.462 354.956 102.261 355.598 102.181C356.482 102.101 357.365 102.302 358.249 102.784C359.132 103.265 359.855 104.109 360.417 105.314C360.899 106.117 361.221 106.88 361.381 107.603C361.622 108.245 361.743 108.888 361.743 109.53C361.743 111.137 360.779 112.663 358.851 114.109C356.924 115.474 354.193 116.598 350.659 117.482C347.205 118.446 343.109 118.928 338.37 118.928ZM322.226 84.3504H346.924C348.289 84.3504 349.333 84.1496 350.056 83.748C350.779 83.2661 351.141 82.3022 351.141 80.8565C351.141 79.0092 350.578 77.3626 349.454 75.9169C348.33 74.3908 346.803 73.2262 344.876 72.423C342.948 71.5395 340.699 71.0978 338.129 71.0978C335.157 71.0978 332.467 71.7001 330.057 72.9049C327.647 74.0294 325.72 75.5956 324.274 77.6036C322.909 79.6116 322.226 81.8605 322.226 84.3504Z" fill="#1B1F26"/>
<circle cx="359.067" cy="136.241" r="9.48196" transform="rotate(-180 359.067 136.241)" fill="#FFC107"/>
<circle cx="327.627" cy="136.241" r="9.48196" transform="rotate(-180 327.627 136.241)" fill="#FFDD75"/>
<circle cx="295.937" cy="136.241" r="9.48196" transform="rotate(-180 295.937 136.241)" fill="#FBEDC5"/>
</svg>
