<svg width="2008" height="477" viewBox="0 0 2008 477" fill="none" xmlns="http://www.w3.org/2000/svg">
<path d="M500.893 317.746C492.772 307.752 488.712 298.85 488.712 291.042C488.712 282.922 495.427 272.303 508.857 259.185C516.665 251.689 524.942 247.941 533.687 247.941C542.432 247.941 554.612 255.75 570.229 271.366C574.601 276.675 580.848 281.829 588.968 286.826C597.088 291.511 604.584 293.853 611.455 293.853C640.502 293.853 655.025 281.985 655.025 258.248C655.025 251.065 650.964 245.13 642.844 240.446C635.036 235.448 625.198 231.857 613.329 229.67C601.461 227.484 588.656 224.049 574.913 219.364C561.171 214.367 548.366 208.589 536.498 202.03C524.629 195.471 514.635 185.164 506.514 171.11C498.706 156.743 494.802 139.565 494.802 119.576C494.802 92.0916 504.953 68.1988 525.254 47.8977C545.867 27.2843 573.82 16.9776 609.113 16.9776C627.852 16.9776 644.874 19.4762 660.178 24.4734C675.794 29.1582 686.569 33.9992 692.504 38.9964L704.216 47.8977C713.898 56.9551 718.739 64.607 718.739 70.8535C718.739 77.1 714.991 85.6889 707.495 96.6203C696.876 112.236 685.945 120.045 674.701 120.045C668.142 120.045 660.022 116.921 650.34 110.675C649.403 110.05 647.529 108.489 644.718 105.99C642.219 103.491 639.877 101.461 637.691 99.8997C631.132 95.8395 622.699 93.8094 612.392 93.8094C602.398 93.8094 593.965 96.308 587.094 101.305C580.535 105.99 577.256 112.705 577.256 121.45C577.256 129.883 581.16 136.754 588.968 142.063C597.088 147.373 607.083 150.965 618.951 152.839C630.819 154.713 643.781 157.68 657.836 161.74C671.89 165.488 684.852 170.173 696.72 175.794C708.588 181.416 718.426 191.255 726.235 205.309C734.355 219.051 738.415 236.073 738.415 256.374C738.415 276.675 734.355 294.634 726.235 310.25C718.114 325.554 707.495 337.422 694.377 345.855C669.079 362.408 642.063 370.685 613.329 370.685C598.65 370.685 584.752 368.967 571.634 365.532C558.516 361.784 547.897 357.255 539.777 351.945C523.224 341.951 511.668 332.269 505.109 322.899L500.893 317.746Z" fill="white"/>
<path d="M768.871 432.994V159.397C768.871 152.214 769.027 146.904 769.339 143.469C769.964 140.033 771.369 136.129 773.555 131.757C777.928 123.324 788.391 119.108 804.944 119.108C821.497 119.108 832.585 121.294 838.207 125.666C844.141 129.727 847.576 135.817 848.513 143.937C860.382 127.697 878.965 119.576 904.263 119.576C929.874 119.576 954.079 131.601 976.879 155.65C999.678 179.699 1011.08 207.652 1011.08 239.509C1011.08 271.366 999.678 299.319 976.879 323.368C954.391 347.417 930.342 359.441 904.732 359.441C879.121 359.441 860.538 352.258 848.982 337.891V432.525C848.982 439.709 848.669 445.018 848.045 448.454C847.732 451.889 846.327 455.793 843.828 460.166C841.642 464.851 837.738 468.13 832.116 470.004C826.494 471.878 818.842 472.815 809.16 472.815C799.478 472.815 791.67 471.878 785.736 470.004C780.114 468.13 776.054 465.007 773.555 460.634C771.369 456.262 769.964 452.358 769.339 448.922C769.027 445.487 768.871 440.177 768.871 432.994ZM861.631 212.336C854.447 220.769 850.856 229.983 850.856 239.977C850.856 249.972 854.447 259.185 861.631 267.618C869.127 275.738 878.496 279.798 889.74 279.798C901.296 279.798 910.978 275.738 918.786 267.618C926.907 259.497 930.967 250.284 930.967 239.977C930.967 229.67 927.219 220.457 919.723 212.336C912.227 203.904 902.389 199.687 890.208 199.687C878.34 199.687 868.814 203.904 861.631 212.336Z" fill="white"/>
<path d="M1201.77 145.343C1203.64 127.853 1215.98 119.108 1238.78 119.108C1250.96 119.108 1260.02 120.045 1265.95 121.919C1271.88 123.792 1275.94 127.072 1278.13 131.757C1280.63 136.442 1282.03 140.658 1282.35 144.406C1282.97 147.841 1283.28 153.151 1283.28 160.334V324.305C1283.28 331.488 1282.97 336.954 1282.35 340.702C1282.03 344.137 1280.78 348.198 1278.6 352.882C1274.23 361.003 1263.45 365.063 1246.27 365.063C1229.41 365.063 1218.01 363.033 1212.07 358.973C1206.45 354.6 1203.17 348.354 1202.24 340.233C1190.68 356.786 1171.32 365.063 1144.14 365.063C1117.28 365.063 1092.3 352.726 1069.18 328.053C1046.07 303.379 1034.52 274.801 1034.52 242.32C1034.52 209.526 1046.07 180.948 1069.18 156.587C1092.61 131.913 1118.22 119.576 1146.02 119.576C1156.64 119.576 1166.32 121.45 1175.06 125.198C1183.81 128.946 1189.9 132.538 1193.33 135.973C1196.77 139.096 1199.58 142.22 1201.77 145.343ZM1116.5 242.788C1116.5 253.095 1120.56 262.464 1128.68 270.897C1136.8 279.018 1146.64 283.078 1158.2 283.078C1169.75 283.078 1179.28 278.862 1186.78 270.429C1194.58 261.996 1198.49 252.782 1198.49 242.788C1198.49 232.481 1194.74 222.955 1187.24 214.21C1180.06 205.465 1170.22 201.093 1157.73 201.093C1145.55 201.093 1135.55 205.465 1127.75 214.21C1120.25 222.955 1116.5 232.481 1116.5 242.788Z" fill="white"/>
<path d="M1320.62 44.1498C1320.62 36.9663 1320.78 31.6568 1321.09 28.2213C1321.72 24.4734 1323.12 20.257 1325.31 15.5721C1329.68 7.13935 1341.86 2.92297 1361.85 2.92297C1380.9 2.92297 1392.77 7.13935 1397.45 15.5721C1399.95 20.257 1401.36 24.4734 1401.67 28.2213C1402.3 31.9691 1402.61 37.4348 1402.61 44.6183V261.528C1402.61 272.771 1403.55 279.955 1405.42 283.078C1407.29 285.889 1411.35 287.294 1417.6 287.294C1424.16 287.294 1428.53 287.607 1430.72 288.231C1432.9 288.544 1435.56 289.793 1438.68 291.979C1444.93 296.039 1448.05 307.127 1448.05 325.242C1448.05 344.918 1444.93 356.943 1438.68 361.315C1430.56 366.937 1411.2 367.874 1380.59 364.126C1356.54 361.003 1340.92 353.039 1333.74 340.233C1325 324.929 1320.62 300.568 1320.62 267.149V44.1498Z" fill="white"/>
<path d="M1610.69 120.045C1641.92 120.045 1667.84 131.913 1688.45 155.65C1709.38 179.386 1719.84 208.432 1719.84 242.788V325.242C1719.84 332.425 1719.53 337.891 1718.91 341.639C1718.59 345.074 1717.19 349.135 1714.69 353.819C1710.63 361.94 1698.61 366 1678.62 366C1659.56 366 1647.7 361.94 1643.01 353.819C1640.51 349.135 1638.95 344.918 1638.33 341.17C1638.01 337.422 1637.86 331.801 1637.86 324.305V242.32C1637.86 229.514 1634.27 219.52 1627.08 212.336C1619.9 205.153 1610.69 201.561 1599.44 201.561C1588.51 201.561 1578.83 204.997 1570.4 211.868C1561.96 218.427 1557.12 225.923 1555.87 234.355V325.242C1555.87 332.425 1555.56 337.891 1554.94 341.639C1554.62 345.074 1553.22 349.135 1550.72 353.819C1546.66 361.94 1534.63 366 1514.65 366C1494.97 366 1482.95 361.784 1478.57 353.351C1476.39 348.666 1474.98 344.606 1474.36 341.17C1474.04 337.735 1473.89 332.269 1473.89 324.773V44.6183C1473.89 37.4348 1474.04 32.1253 1474.36 28.6897C1474.98 24.9418 1476.39 20.8816 1478.57 16.5091C1482.95 8.07631 1495.13 3.85993 1515.11 3.85993C1534.79 3.85993 1546.66 8.07631 1550.72 16.5091C1553.22 21.194 1554.62 25.4103 1554.94 29.1582C1555.56 32.5938 1555.87 37.9033 1555.87 45.0867V148.622C1571.49 129.57 1589.76 120.045 1610.69 120.045Z" fill="white"/>
<path d="M1995.53 213.273C1995.53 232.325 1990.69 246.536 1981.01 255.906C1971.64 264.963 1961.18 269.492 1949.62 269.492H1838.59C1838.59 278.237 1843.74 285.576 1854.05 291.511C1864.36 297.445 1874.66 300.412 1884.97 300.412C1903.08 300.412 1917.3 298.538 1927.6 294.79L1932.76 292.916C1940.25 289.481 1946.5 287.763 1951.5 287.763C1961.49 287.763 1970.08 294.79 1977.26 308.845C1981.32 317.277 1983.35 324.461 1983.35 330.395C1983.35 358.192 1950.09 372.09 1883.56 372.09C1860.45 372.09 1839.84 368.186 1821.72 360.378C1803.92 352.258 1790.02 341.639 1780.03 328.521C1760.35 303.223 1750.51 274.957 1750.51 243.725C1750.51 204.372 1763.16 172.984 1788.46 149.559C1814.07 125.823 1845.93 113.954 1884.03 113.954C1927.45 113.954 1959.3 129.258 1979.6 159.866C1990.22 176.107 1995.53 193.909 1995.53 213.273ZM1896.68 226.86C1908.55 226.86 1914.48 221.862 1914.48 211.868C1914.48 204.684 1911.67 198.906 1906.05 194.534C1900.74 190.161 1892.93 187.975 1882.63 187.975C1872.63 187.975 1862.64 192.192 1852.64 200.624C1842.65 208.745 1837.65 217.49 1837.65 226.86H1896.68Z" fill="white"/>
<rect x="926.514" y="424.459" width="341.514" height="52.5405" rx="7.2973" fill="#FFC107"/>
<rect x="1295.76" y="424.459" width="342.973" height="52.5405" rx="7.2973" fill="#FFDD75"/>
<rect x="1666.46" y="424.459" width="341.514" height="52.5405" rx="7.2973" fill="#FBEDC5"/>
<path d="M443.464 237.287C437.312 218.436 416.774 208.415 397.823 214.566L352.778 229.548L322.715 140.252L367.76 125.27C386.711 119.118 396.633 98.6789 390.58 79.7281C384.429 60.8766 363.891 50.8555 344.94 57.007L299.894 71.9891L284.317 25.3562C278.166 6.50469 257.627 -3.5164 238.676 2.63516C219.726 8.78672 209.804 29.2258 215.856 48.1766L231.433 94.8094L138.763 125.766L123.186 79.1328C117.034 60.2812 96.496 50.2601 77.5452 56.4117C58.5945 62.5633 48.6726 83.0023 54.7249 101.953L70.3023 148.586L25.3562 163.469C6.4054 169.62 -3.51647 190.059 2.53587 209.01C7.49681 223.397 21.4867 232.823 35.8734 233.418C42.6202 234.41 47.7796 231.83 93.1226 216.749L123.186 306.046L78.1405 321.028C59.289 327.18 49.2679 347.718 55.3202 366.569C60.2812 380.956 74.271 390.382 88.6577 390.977C95.4046 391.969 100.564 389.39 145.907 374.309L161.484 420.941C167.338 437.709 185.991 449.715 207.125 443.662C226.076 437.511 235.998 417.072 229.945 398.121L214.368 351.488L307.237 320.433L322.814 367.066C328.668 383.834 347.321 395.839 368.455 389.787C387.405 383.635 397.327 363.196 391.275 344.245L375.698 297.612L420.743 282.63C439.594 276.677 449.616 256.139 443.464 237.287V237.287ZM191.349 284.119L161.286 194.623L254.055 163.568L284.119 253.063L191.349 284.119V284.119Z" fill="#FFC107"/>
</svg>
